# xmcd CD database file
#
# Track frame offsets:
#	150
#	9647
#	16331
#	23093
#	35710
#	43244
#	53727
#	62144
#	73644
#	84446
#	94198
#	103146
#	114774
#	125061
#	135646
#	146929
#	160902
#	175001
#	188500
#	201427
#	209819
#	223348
#	230623
#	246340
#	256729
#	271436
#
# Disc length: 3791 seconds
#
# Revision: 0
# Processed by: cddbd v1.5PL3 Copyright (c) Steve Scherf et al.
# Submitted via: CDex 1.51
#
DISCID=8a0ecd1a
DTITLE=Floyd Tillman - Crazy Cajun Recordings
DYEAR=1999
DGENRE=Country
TTITLE0=Slipping Around
TTITLE1=Daisy Mae
TTITLE2=They Took the Stars Out of Heaven
TTITLE3=I Love You So Much It Hurts
TTITLE4=I Don't Care Anymore
TTITLE5=Cold War
TTITLE6=Please Don't Pass Me By
TTITLE7=Gotta Have My Baby Back
TTITLE8=It Makes No Difference Now
TTITLE9=Battle of the Bottle
TTITLE10=You're in Good Hands
TTITLE11=You Made Me Live, You Made Me Love (Now You'll Make Me Die)
TTITLE12=Walking the Floor over You
TTITLE13=I'll Take What I Can Get
TTITLE14=It's a Good Year
TTITLE15=She Loved Me
TTITLE16=Paper Flowers
TTITLE17=Small Little Town
TTITLE18=Convict and the Roses
TTITLE19=I Gotta Have Somethiing I Ain't Got
TTITLE20=Road to Nowhere
TTITLE21=I'll Keep Loving You
TTITLE22=Only One of Us
TTITLE23=No One Can Change Yesterday
TTITLE24=It Hurts Me
TTITLE25=She'll Never Love Me
EXTD=YEAR: 1999
EXTT0=
EXTT1=
EXTT2=
EXTT3=
EXTT4=
EXTT5=
EXTT6=
EXTT7=
EXTT8=
EXTT9=
EXTT10=
EXTT11=
EXTT12=
EXTT13=
EXTT14=
EXTT15=
EXTT16=
EXTT17=
EXTT18=
EXTT19=
EXTT20=
EXTT21=
EXTT22=
EXTT23=
EXTT24=
EXTT25=
PLAYORDER=
